<mxfile host="app.diagrams.net" modified="2021-04-08T14:07:14.925Z" agent="5.0 (Windows NT 10.0; Win64; x64) AppleWebKit/537.36 (KHTML, like Gecko) Chrome/89.0.4389.114 Safari/537.36" etag="Dtn-Kb5BmrVnz_NZ9JAV" version="14.5.3" type="github">
  <diagram id="UUh7SYn_sr4Aj5xCcOds" name="Page-1">
    <mxGraphModel dx="782" dy="776" grid="1" gridSize="10" guides="1" tooltips="1" connect="1" arrows="1" fold="1" page="1" pageScale="1" pageWidth="850" pageHeight="1100" math="0" shadow="0">
      <root>
        <mxCell id="0" />
        <mxCell id="1" parent="0" />
        <mxCell id="vuigrfhS4OwsWCHyQfyw-3" value="" style="edgeStyle=orthogonalEdgeStyle;rounded=0;orthogonalLoop=1;jettySize=auto;html=1;" edge="1" parent="1" source="vuigrfhS4OwsWCHyQfyw-1" target="vuigrfhS4OwsWCHyQfyw-2">
          <mxGeometry relative="1" as="geometry" />
        </mxCell>
        <mxCell id="vuigrfhS4OwsWCHyQfyw-1" value="adding ()" style="rounded=0;whiteSpace=wrap;html=1;" vertex="1" parent="1">
          <mxGeometry x="330" y="90" width="120" height="60" as="geometry" />
        </mxCell>
        <mxCell id="vuigrfhS4OwsWCHyQfyw-4" style="edgeStyle=orthogonalEdgeStyle;rounded=0;orthogonalLoop=1;jettySize=auto;html=1;" edge="1" parent="1">
          <mxGeometry relative="1" as="geometry">
            <mxPoint x="210" y="230" as="targetPoint" />
            <mxPoint x="320" y="120" as="sourcePoint" />
          </mxGeometry>
        </mxCell>
        <mxCell id="vuigrfhS4OwsWCHyQfyw-8" style="edgeStyle=orthogonalEdgeStyle;rounded=0;orthogonalLoop=1;jettySize=auto;html=1;" edge="1" parent="1">
          <mxGeometry relative="1" as="geometry">
            <mxPoint x="570" y="240" as="targetPoint" />
            <mxPoint x="460" y="120" as="sourcePoint" />
          </mxGeometry>
        </mxCell>
        <mxCell id="vuigrfhS4OwsWCHyQfyw-2" value="first riddle&lt;span&gt;(127)&lt;/span&gt;" style="rounded=0;whiteSpace=wrap;html=1;" vertex="1" parent="1">
          <mxGeometry x="330" y="10" width="120" height="40" as="geometry" />
        </mxCell>
        <mxCell id="vuigrfhS4OwsWCHyQfyw-7" value="" style="edgeStyle=orthogonalEdgeStyle;rounded=0;orthogonalLoop=1;jettySize=auto;html=1;" edge="1" parent="1" source="vuigrfhS4OwsWCHyQfyw-5" target="vuigrfhS4OwsWCHyQfyw-6">
          <mxGeometry relative="1" as="geometry" />
        </mxCell>
        <mxCell id="vuigrfhS4OwsWCHyQfyw-5" value="user type 127" style="rounded=0;whiteSpace=wrap;html=1;direction=west;" vertex="1" parent="1">
          <mxGeometry x="150" y="230" width="120" height="40" as="geometry" />
        </mxCell>
        <mxCell id="vuigrfhS4OwsWCHyQfyw-6" value="show message (correct)" style="rounded=0;whiteSpace=wrap;html=1;direction=west;" vertex="1" parent="1">
          <mxGeometry x="90" y="350" width="120" height="40" as="geometry" />
        </mxCell>
        <mxCell id="vuigrfhS4OwsWCHyQfyw-10" style="edgeStyle=orthogonalEdgeStyle;rounded=0;orthogonalLoop=1;jettySize=auto;html=1;exitX=0.5;exitY=1;exitDx=0;exitDy=0;" edge="1" parent="1" source="vuigrfhS4OwsWCHyQfyw-9">
          <mxGeometry relative="1" as="geometry">
            <mxPoint x="600" y="380" as="targetPoint" />
          </mxGeometry>
        </mxCell>
        <mxCell id="vuigrfhS4OwsWCHyQfyw-9" value="user type else&amp;nbsp;" style="rounded=0;whiteSpace=wrap;html=1;" vertex="1" parent="1">
          <mxGeometry x="490" y="230" width="120" height="60" as="geometry" />
        </mxCell>
        <mxCell id="vuigrfhS4OwsWCHyQfyw-11" value="show message (incorrect)&amp;nbsp;&lt;span style=&quot;font-family: &amp;#34;times new roman&amp;#34; ; font-size: 20px ; font-weight: 700 ; background-color: rgb(255 , 215 , 0)&quot;&gt;&lt;br&gt;&lt;br&gt;&lt;/span&gt;" style="rounded=0;whiteSpace=wrap;html=1;" vertex="1" parent="1">
          <mxGeometry x="520" y="380" width="120" height="60" as="geometry" />
        </mxCell>
      </root>
    </mxGraphModel>
  </diagram>
</mxfile>
